<svg xmlns="http://www.w3.org/2000/svg" width="512" height="512" viewBox="0 0 512 512" id="Lock">
  <g transform="translate(12 -3.75)" fill="#8526fe" class="color000000 svgShape">
    <path fill="#d8a353" fill-rule="evenodd" d="m 97,224.25 c -33.049939,0 -60,26.95006 -60,60 v 171.5 c 0,33.04994 26.950061,60 60,60 h 294 c 33.04994,0 60,-26.95006 60,-60 v -171.5 c 0,-33.04994 -26.95006,-60 -60,-60 z" clip-rule="evenodd" color="#000" style="-inkscape-stroke:none" class="colorffca28 svgShape"></path>
    <path fill="#ad59d4" fill-rule="evenodd" d="m 369,224.25 c 33.04991,0 60,26.95009 60,60 v 171.5 c 0,33.04991 -26.95009,60 -60,60 h 22 c 33.04991,0 60,-26.95009 60,-60 v -171.5 c 0,-33.04991 -26.95009,-60 -60,-60 z" clip-rule="evenodd" color="#000" class="colorffc107 svgShape"></path>
    <path fill="#5fe4d4" fill-rule="evenodd" d="m 245.31641,273.30078 c -21.28996,-0.52501 -42.26352,10.2871 -53.60938,29.93969 -16.50432,28.58479 -6.62465,65.45973 21.96094,81.96353 6.05894,3.49808 12.49253,5.79761 19.02344,6.99811 l 0.31054,63.60792 a 11,11.000087 0 0 0 11.05274,10.94736 11,11.000087 0 0 0 10.94726,-11.05478 l -0.31054,-63.56495 c 16.62895,-3.13056 31.86697,-13.17825 40.9414,-28.89672 7.95224,-13.77796 10.10749,-30.16382 5.98828,-45.52965 a 11,11.000087 0 0 0 -13.47461,-7.77545 11,11.000087 0 0 0 -7.77539,13.47276 c 2.61061,9.73834 1.24694,20.10213 -3.79297,28.83421 -7.07362,12.25156 -19.7622,19.03315 -32.86523,19.02358 a 11,11.000087 0 0 0 -0.125,-0.0156 11,11.000087 0 0 0 -0.1582,0.0215 c -6.36319,-0.0525 -12.81411,-1.68733 -18.76172,-5.12113 -18.28878,-10.55897 -24.46713,-33.62294 -13.9082,-51.91057 10.5582,-18.28824 33.62136,-24.46944 51.91015,-13.91026 a 11,11.000087 0 0 0 15.02539,-4.02542 11,11.000087 0 0 0 -4.02539,-15.02551 c -8.93297,-5.15753 -18.67626,-7.73994 -28.35351,-7.97858 z" clip-rule="evenodd" color="#000" style="-inkscape-stroke:none" class="colorfff8e1 svgShape"></path>
    <path fill="#424242" fill-rule="evenodd" d="M 219.49609,3.75 C 159.43001,3.7488593 110.50007,52.677828 110.5,112.74414 V 186.25 a 11,11 0 0 0 11,11 11,11 0 0 0 11,-11 v -73.50586 c 5e-5,-48.176567 38.81989,-86.995055 86.99609,-86.99414 h 49.00782 c 48.17702,9.16e-4 86.99613,38.822615 86.99609,87 v 73.5 a 11,11 0 0 0 11,11 11,11 0 0 0 11,-11 v -73.5 c 5e-5,-60.06685 -48.92948,-108.9988581 -108.99609,-109 z" clip-rule="evenodd" color="#000" style="-inkscape-stroke:none" class="color424242 svgShape"></path>
  </g>
</svg>
